<mxfile host="app.diagrams.net" modified="2020-11-10T06:15:45.886Z" agent="5.0 (Windows NT 10.0; Win64; x64) AppleWebKit/537.36 (KHTML, like Gecko) Chrome/86.0.4240.193 Safari/537.36" etag="IQzLNhZhW48thZdHnUs7" version="13.9.2" type="github">
  <diagram id="cWaAuKPkMHBf0iGHZvn4" name="Page-1">
    <mxGraphModel dx="782" dy="469" grid="1" gridSize="10" guides="1" tooltips="1" connect="1" arrows="1" fold="1" page="1" pageScale="1" pageWidth="827" pageHeight="1169" math="0" shadow="0">
      <root>
        <mxCell id="0" />
        <mxCell id="1" parent="0" />
        <mxCell id="A5GcaZOQZyLO0LeQ0V0A-18" value="" style="endArrow=classic;html=1;" edge="1" parent="1" source="A5GcaZOQZyLO0LeQ0V0A-11" target="A5GcaZOQZyLO0LeQ0V0A-17">
          <mxGeometry width="50" height="50" relative="1" as="geometry">
            <mxPoint x="380" y="220" as="sourcePoint" />
            <mxPoint x="430" y="170" as="targetPoint" />
            <Array as="points">
              <mxPoint x="380" y="360" />
            </Array>
          </mxGeometry>
        </mxCell>
        <mxCell id="A5GcaZOQZyLO0LeQ0V0A-1" value="" style="endArrow=classic;html=1;" edge="1" parent="1" source="A5GcaZOQZyLO0LeQ0V0A-3" target="A5GcaZOQZyLO0LeQ0V0A-9">
          <mxGeometry width="50" height="50" relative="1" as="geometry">
            <mxPoint x="190" y="230" as="sourcePoint" />
            <mxPoint x="430" y="200" as="targetPoint" />
          </mxGeometry>
        </mxCell>
        <mxCell id="A5GcaZOQZyLO0LeQ0V0A-2" value="更新即时库存" style="edgeLabel;html=1;align=center;verticalAlign=middle;resizable=0;points=[];" vertex="1" connectable="0" parent="A5GcaZOQZyLO0LeQ0V0A-1">
          <mxGeometry x="-0.5324" y="-2" relative="1" as="geometry">
            <mxPoint as="offset" />
          </mxGeometry>
        </mxCell>
        <mxCell id="A5GcaZOQZyLO0LeQ0V0A-3" value="分步式调出单" style="shape=umlLifeline;perimeter=lifelinePerimeter;container=1;collapsible=0;recursiveResize=0;rounded=0;shadow=0;strokeWidth=1;" vertex="1" parent="1">
          <mxGeometry x="120" y="80" width="100" height="300" as="geometry" />
        </mxCell>
        <mxCell id="A5GcaZOQZyLO0LeQ0V0A-4" value="" style="points=[];perimeter=orthogonalPerimeter;rounded=0;shadow=0;strokeWidth=1;" vertex="1" parent="A5GcaZOQZyLO0LeQ0V0A-3">
          <mxGeometry x="45" y="70" width="10" height="200" as="geometry" />
        </mxCell>
        <mxCell id="A5GcaZOQZyLO0LeQ0V0A-5" value="save" style="verticalAlign=bottom;startArrow=oval;endArrow=block;startSize=8;shadow=0;strokeWidth=1;" edge="1" parent="A5GcaZOQZyLO0LeQ0V0A-3" target="A5GcaZOQZyLO0LeQ0V0A-4">
          <mxGeometry relative="1" as="geometry">
            <mxPoint x="-15" y="70" as="sourcePoint" />
          </mxGeometry>
        </mxCell>
        <mxCell id="A5GcaZOQZyLO0LeQ0V0A-6" value="库存台账" style="shape=umlLifeline;perimeter=lifelinePerimeter;container=1;collapsible=0;recursiveResize=0;rounded=0;shadow=0;strokeWidth=1;" vertex="1" parent="1">
          <mxGeometry x="450" y="80" width="100" height="320" as="geometry" />
        </mxCell>
        <mxCell id="A5GcaZOQZyLO0LeQ0V0A-7" value="" style="points=[];perimeter=orthogonalPerimeter;rounded=0;shadow=0;strokeWidth=1;" vertex="1" parent="A5GcaZOQZyLO0LeQ0V0A-6">
          <mxGeometry x="45" y="80" width="10" height="50" as="geometry" />
        </mxCell>
        <mxCell id="A5GcaZOQZyLO0LeQ0V0A-8" value="更新台账" style="verticalAlign=bottom;endArrow=block;entryX=0;entryY=0;shadow=0;strokeWidth=1;" edge="1" parent="1" source="A5GcaZOQZyLO0LeQ0V0A-4" target="A5GcaZOQZyLO0LeQ0V0A-7">
          <mxGeometry relative="1" as="geometry">
            <mxPoint x="275" y="160" as="sourcePoint" />
          </mxGeometry>
        </mxCell>
        <mxCell id="A5GcaZOQZyLO0LeQ0V0A-9" value="即时库存" style="shape=umlLifeline;perimeter=lifelinePerimeter;container=1;collapsible=0;recursiveResize=0;rounded=0;shadow=0;strokeWidth=1;" vertex="1" parent="1">
          <mxGeometry x="600" y="80" width="100" height="300" as="geometry" />
        </mxCell>
        <mxCell id="A5GcaZOQZyLO0LeQ0V0A-10" value="" style="points=[];perimeter=orthogonalPerimeter;rounded=0;shadow=0;strokeWidth=1;" vertex="1" parent="A5GcaZOQZyLO0LeQ0V0A-9">
          <mxGeometry x="45" y="150" width="10" height="80" as="geometry" />
        </mxCell>
        <mxCell id="A5GcaZOQZyLO0LeQ0V0A-11" value="分步式调入单" style="shape=umlLifeline;perimeter=lifelinePerimeter;container=1;collapsible=0;recursiveResize=0;rounded=0;shadow=0;strokeWidth=1;" vertex="1" parent="1">
          <mxGeometry x="280" y="80" width="100" height="350" as="geometry" />
        </mxCell>
        <mxCell id="A5GcaZOQZyLO0LeQ0V0A-12" value="" style="points=[];perimeter=orthogonalPerimeter;rounded=0;shadow=0;strokeWidth=1;" vertex="1" parent="A5GcaZOQZyLO0LeQ0V0A-11">
          <mxGeometry x="45" y="260" width="15" height="90" as="geometry" />
        </mxCell>
        <mxCell id="A5GcaZOQZyLO0LeQ0V0A-13" value="" style="endArrow=classic;html=1;exitX=0.5;exitY=1.014;exitDx=0;exitDy=0;exitPerimeter=0;" edge="1" parent="1">
          <mxGeometry width="50" height="50" relative="1" as="geometry">
            <mxPoint x="170" y="350.79999999999995" as="sourcePoint" />
            <mxPoint x="330" y="351" as="targetPoint" />
          </mxGeometry>
        </mxCell>
        <mxCell id="A5GcaZOQZyLO0LeQ0V0A-14" value="下推或者选单" style="edgeLabel;html=1;align=center;verticalAlign=middle;resizable=0;points=[];" vertex="1" connectable="0" parent="A5GcaZOQZyLO0LeQ0V0A-13">
          <mxGeometry x="-0.0592" y="3" relative="1" as="geometry">
            <mxPoint y="-6" as="offset" />
          </mxGeometry>
        </mxCell>
        <mxCell id="A5GcaZOQZyLO0LeQ0V0A-17" value="" style="points=[];perimeter=orthogonalPerimeter;rounded=0;shadow=0;strokeWidth=1;" vertex="1" parent="1">
          <mxGeometry x="495" y="361" width="10" height="39" as="geometry" />
        </mxCell>
        <mxCell id="A5GcaZOQZyLO0LeQ0V0A-20" value="" style="points=[];perimeter=orthogonalPerimeter;rounded=0;shadow=0;strokeWidth=1;" vertex="1" parent="1">
          <mxGeometry x="645" y="380" width="10" height="80" as="geometry" />
        </mxCell>
        <mxCell id="A5GcaZOQZyLO0LeQ0V0A-23" style="edgeStyle=orthogonalEdgeStyle;rounded=0;orthogonalLoop=1;jettySize=auto;html=1;" edge="1" parent="1" source="A5GcaZOQZyLO0LeQ0V0A-12">
          <mxGeometry relative="1" as="geometry">
            <mxPoint x="646" y="430" as="targetPoint" />
            <Array as="points">
              <mxPoint x="646" y="430" />
            </Array>
          </mxGeometry>
        </mxCell>
      </root>
    </mxGraphModel>
  </diagram>
</mxfile>
